<svg width="26" height="24" viewBox="0 0 26 24" fill="none" xmlns="http://www.w3.org/2000/svg">
<path d="M12.6686 6.5506L4.66643 15.0253V24.172C4.66643 24.4088 4.73959 24.6359 4.86983 24.8034C5.00006 24.9709 5.1767 25.0649 5.36087 25.0649L10.2246 25.0488C10.4082 25.0476 10.5839 24.953 10.7134 24.7856C10.8429 24.6183 10.9156 24.3919 10.9156 24.1558V18.8142C10.9156 18.5774 10.9887 18.3503 11.119 18.1828C11.2492 18.0154 11.4258 17.9213 11.61 17.9213H14.3878C14.572 17.9213 14.7486 18.0154 14.8788 18.1828C15.0091 18.3503 15.0822 18.5774 15.0822 18.8142V24.1519C15.0819 24.2694 15.0997 24.3858 15.1345 24.4945C15.1692 24.6031 15.2203 24.7019 15.2849 24.7851C15.3494 24.8683 15.426 24.9344 15.5104 24.9794C15.5948 25.0245 15.6853 25.0476 15.7767 25.0476L20.6386 25.0649C20.8228 25.0649 20.9995 24.9709 21.1297 24.8034C21.2599 24.6359 21.3331 24.4088 21.3331 24.172V15.0192L13.3327 6.5506C13.2386 6.45311 13.1214 6.39995 13.0006 6.39995C12.8798 6.39995 12.7626 6.45311 12.6686 6.5506ZM25.3088 12.3107L21.6803 8.46487V0.734659C21.6803 0.557039 21.6254 0.386694 21.5278 0.261097C21.4301 0.135501 21.2976 0.0649414 21.1595 0.0649414H18.7289C18.5908 0.0649414 18.4583 0.135501 18.3606 0.261097C18.263 0.386694 18.2081 0.557039 18.2081 0.734659V4.78701L14.3222 0.676059C13.9493 0.281472 13.4814 0.0657302 12.9985 0.0657302C12.5155 0.0657302 12.0476 0.281472 11.6747 0.676059L0.688133 12.3107C0.635394 12.3668 0.59176 12.4356 0.559725 12.5134C0.52769 12.5911 0.507883 12.6762 0.501434 12.7638C0.494985 12.8514 0.502021 12.9398 0.52214 13.0239C0.542259 13.108 0.575067 13.1861 0.618689 13.2539L1.72546 14.984C1.76896 15.052 1.82247 15.1084 1.88292 15.1497C1.94338 15.1911 2.00958 15.2168 2.07776 15.2252C2.14593 15.2337 2.21473 15.2248 2.28022 15.199C2.3457 15.1732 2.40659 15.1311 2.4594 15.075L12.6686 4.2624C12.7626 4.16491 12.8798 4.11175 13.0006 4.11175C13.1214 4.11175 13.2386 4.16491 13.3327 4.2624L23.5423 15.075C23.595 15.1311 23.6558 15.1733 23.7212 15.1991C23.7866 15.225 23.8553 15.2341 23.9234 15.2258C23.9915 15.2175 24.0577 15.192 24.1182 15.1508C24.1786 15.1096 24.2322 15.0535 24.2758 14.9857L25.3826 13.2556C25.4261 13.1874 25.4588 13.1088 25.4787 13.0244C25.4986 12.9399 25.5053 12.8512 25.4984 12.7634C25.4916 12.6756 25.4713 12.5904 25.4387 12.5127C25.4062 12.4351 25.362 12.3664 25.3088 12.3107Z" fill="#1EF7B6"/>
</svg>
